<svg xmlns="http://www.w3.org/2000/svg" version="1.2" viewBox="0 0 400 400"><path fill="#010101" fill-rule="evenodd" d="M246.8 76c1.4 0 3 1.1 4.4 3.3a92 92 0 007 8.2 45 45 0 017 9.5 66 66 0 013.4 9c.7 2.5 2.7 8.3 4.4 13 1.8 4.7 3.4 9.5 3.6 10.8.2 1.2.8 2.2 1.4 2.2.6 0 1 .7 1 1.5s1 3.6 2.4 6.3a72.8 72.8 0 015.6 20.6c-.3.3-2 .8-3.8 1-2.7.5-3.7 0-6.2-2.7a17.8 17.8 0 01-4-8c-.6-2.6-1-6-1-7.4 0-1.6-1-5.8-2.3-9.5a36 36 0 00-3.8-8.5c-.8-1-2.5-4-3.8-6.8-1.2-2.8-3-5.8-4-6.8a23 23 0 01-3.1-5.5c-.8-2-3.4-7.2-5.8-11.5A28 28 0 00244 87c-.6 0-1.2.7-1.5 1.5-.3.8-.5 3.9-.5 6.8a88 88 0 01-1.1 11.7 283.7 283.7 0 01-5.8 27c-1.6 6.9-3.9 15.2-5 18.5a28.5 28.5 0 01-4.9 8.8c-1.5 1.5-4 2.8-8.7 3.2l.3-6.5c.2-3.6.8-8 1.3-10 .6-2 1.6-7.6 2.4-12.5l3-17.5a87.6 87.6 0 017.1-24.5 59 59 0 018.2-11.2c3.6-3.9 6.5-6.2 8-6.2zM117 83c1.8 0 4.4 2 9.6 7.7 4 4.3 8.8 10.2 10.8 13a34 34 0 013.6 6c0 .5 1 2.4 2.3 4.3 1.3 2 3.2 5.8 4.2 8.5a804.6 804.6 0 009.6 25.3c1.6 4 2.9 8.3 2.9 9.7 0 1.8-.5 2.4-1.7 2.3-1-.2-2.8-1.9-4-3.8-1.3-2-3.4-6.9-4.7-11-1.3-4.1-5-12.4-8-18.5-3-6-7.2-13-9.3-15.4a67 67 0 01-7.3-11.5c-2-4-4.2-7.2-5-7.4-.9-.1-2.8 1.8-4.6 4.5a84.1 84.1 0 00-10.7 20.8 65 65 0 01-4.2 9.5l-4.6 8.5A23.6 23.6 0 0193 140a15 15 0 00-1.9 4.3c-.9 3-2.4 4.6-7.8 8.2a39.3 39.3 0 00-8 6.5c-.7 1-2 2-3 2s-3-.8-4.3-1.8c-2.5-2-2.5-2-1-6.3.8-2.4 2-5 2.8-5.9a144 144 0 009.2-13.3 39 39 0 013.8-6.4c2.2-3.2 6-10 8.8-15.3A107 107 0 01104 92.5c.3-.5 2.8-3 5.5-5.3 3-2.4 6-4.2 7.5-4.2zm273 80.3c3.4.2 3.5.3 3.8 4.7.3 3-.3 5.6-3.5 11.5l-18.1.3c-10 0-18.6.4-19.2.7-.6.3-1 6-1 13.8 0 7.2-.5 15-1.1 17.2-.7 2.4-1.3 18.4-1.4 40-.2 19.8-.8 40.4-1.2 45.7a35.8 35.8 0 01-2 11c-1 1-1.6 1-3-.3-1-.9-2.6-1.9-3.6-2.3-1.3-.5-1.8-2.2-2.2-7.9-.3-4-.8-16.9-1.1-28.7-.4-15-.2-24.7.8-32 .9-7.2 1.2-19.6 1-39a487 487 0 01.3-30.3c.4-1.2 2-1.8 5.8-2.3a124.7 124.7 0 0125.2.1c8 .5 10.7.3 13.5-.9 2-.9 5-1.5 7-1.3zM90.2 168a381 381 0 0140.6 2.2c.1.1.5 1.8.7 3.7.3 2 0 4-.8 4.8-1 1.1-5.6 1.3-44.2.7l-.6 5c-.4 2.8-1.3 14-2 25-1 15.3-1 21-.2 24a321 321 0 011.8 35.3c.4 27.2.3 31.3-1 31.7-.8.3-1.5 1.6-1.5 3s-.5 4.6-1.1 7.3c-.7 2.6-1.8 5.4-2.5 6.2-1.1 1.2-1.6 1.3-2.6.2-.7-.7-2-1.2-3-1.2s-1.8-.3-2-.8l-.3-29.2c0-15.7-.8-41.6-1.5-57.5-1-22.7-1.1-30.3-.2-35 .7-3.3 1.2-7.1 1.2-8.5 0-1.4 1.4-5.5 3.2-9.2 1.8-3.7 4-7 4.8-7.1a97 97 0 0111.3-.6zm206.2-.1c.6 0 1.8.6 2.6 1.5s2.5 1.6 3.8 1.5c1.2 0 3.1.4 4.2 1s2.7 2.7 3.6 4.8a88 88 0 009 16.7c.8 1.1 1.4 3.6 1.4 5.5 0 2 .5 5 1 7a73 73 0 002 5.5c.5 1.1 1.1 3.3 1.5 5l1.6 9a252.2 252.2 0 011 42.5c-.7 4.1-2.1 9.5-3.2 12s-3.3 6-4.7 7.7a287 287 0 00-6.2 7.7c-2 2.7-5 5.2-7.3 6.1-2 .8-5.5 1.7-7.7 2-3.4.4-4.2.2-5-1.8-.7-1.2-1-2.8-.6-3.4a16 16 0 014.4-3.7 75 75 0 005.8-4.2 44 44 0 0011.8-36.4 52.2 52.2 0 00-2.5-13.8 65.5 65.5 0 01-3-16.4c-.5-6.8-1.3-14.6-1.8-17.3-.5-2.8-1.8-7-2.9-9.5l-4.8-12a59.3 59.3 0 00-4.6-10c-1-1.4-2-3.2-2-4 0-1 .2-2 .7-2.3.5-.4 1.3-.7 2-.7zM46 171c1.4 0 4.2.3 6.3.8 2 .4 4 1.4 4.2 2.2.3 1-2 4-6.4 8a83.7 83.7 0 00-9.9 11 40.8 40.8 0 00-4.5 11c-.8 3.6-2 10.3-2.7 15-.8 5.4-1 14-.7 23.5a102.3 102.3 0 006 34.5c.8 2.5 2.4 6.5 3.5 9s4.2 6.4 6.9 8.6L56 301c1.4 1.2 3.3 2.4 4.3 2.6 1 .3 1.7 1.3 1.7 2.3 0 1-.9 2.5-2 3.4a8 8 0 01-4.5 1.8 15 15 0 01-4.8-1l-4.7-1.4c-1.4-.2-4.8-2.4-7.5-4.9A73.9 73.9 0 0124 284.3c0-.7-.6-2.8-1.4-4.6-.8-1.7-2-6.1-2.7-9.7-.6-3.6-1.6-7-2-7.5a246.6 246.6 0 01-.5-38 62 62 0 013.3-15c1.3-3.3 2.6-7.6 3-9.5a51.4 51.4 0 019.8-19c1.7-2 3.5-4.2 4-5 .6-1 2.1-2.4 3.5-3.3a10 10 0 015-1.7zm90 62.6c4.7.2 8.6 1 10.4 2.1 1.6 1 3.5 3.4 4.2 5.3a31 31 0 011.3 8.5c0 3.8-.5 5.6-2.2 7.6a14.9 14.9 0 01-5.7 3.8c-2 .6-6.2 1-9.5 1s-8-.6-10.5-1.2c-3.6-1-4.9-2-6.7-5.2a18.7 18.7 0 01-2.3-9.5c0-4.5.4-5.9 2.2-7.6a30 30 0 016.8-3.7 29 29 0 0112-1.1zm126.7 2.4c3.5 0 5 .6 7.7 3.3 2.9 2.8 3.4 4 4 9.7.5 4.8.3 7-.7 8.5-.8 1.1-2.5 3.2-3.8 4.6a21.3 21.3 0 01-4.6 3.8c-1.3.6-3.7.8-5.6.4-1.7-.3-5-2-7.2-3.7-2.2-1.7-5.3-4.2-6.8-5.6-1.6-1.4-3-4-3.3-6-.4-2-.3-5 0-6.8.5-2.8 1-3.2 3.6-3.2 1.7 0 5.1-1.1 7.7-2.5 3-1.6 6.3-2.5 9-2.5zM125 249c-.5.7-.1 6 3 7 3.1 0 1-12-3-7zm22.4 14l7.6 1.1c4.6.8 6.4 1.5 6.2 2.5 0 .8-.5 1.4-1 1.4-.4 0-1.3 1.6-2 3.7s-1.2 6.4-1 9.7c.3 5.1.7 6.2 3.1 8 2.4 1.8 4.3 2.1 19.9 2.1l3.1-4.4c2.1-2.8 3.4-6 3.7-9 .4-3.6 1-4.7 2.5-5 1.5-.2 2.9 1.2 5.6 5.6 2 3.2 4 6.8 4.3 8 .5 2 1.8 2.6 7.8 3.8 4 .9 8.4 1.5 9.8 1.5a10 10 0 004.8-1.5c1.2-.8 2.2-2 2.2-2.5 0-.6.7-1.7 1.5-2.5s1.5-3 1.5-5 .4-3.7 1-4c.6-.3.9-2.4.8-4.8-.2-3.8 0-4.2 2.1-4.2 2.2 0 2.6.8 4.2 7.5 1 4.1 1.8 9.9 1.9 12.8 0 4.5-.4 5.6-3 8.2a32.5 32.5 0 01-6.3 4.8c-2.5 1.3-5.6 1.7-13.9 1.7-7.3 0-11.1-.4-12-1.3a5.8 5.8 0 00-3.6-1.2c-1.3 0-3.3-1.4-8.3-7.5l-2.5 3a15.9 15.9 0 00-2.4 3.5 32 32 0 01-19.3 5c-6.4 0-9.2-.5-12.9-2.3-4.1-2-4.8-2.7-5.8-6.7l-2-8.5c-.5-2.2-1-7.9-1.2-12.6-.1-6.3.2-8.8 1.2-9.7.8-.7 1.9-1.2 2.4-1.2zM251 250s-2.5 5.3 3.4 5.8c.4-3.3-.7-6.2-3.4-5.8z"/></svg>